<svg width="54" height="40" viewBox="0 0 48 36" fill="none" xmlns="http://www.w3.org/2000/svg"><g clip-path="url(#flag-gb)"><path d="M48 0V35.99L47.99 36H0V0H48Z" fill="#1E3A8A"></path> <path d="M25.47 21.2601L25.44 21.2801L23.8 22.3801L22.56 23.2201L20.4 24.6801L18.24 26.1301L3.60999 36.0001H1.03999L18.24 24.3901L19.18 23.7601L20.4 22.9301L22.38 21.6001L22.51 21.5101L22.56 21.4801L24.66 20.0601L25.44 21.2201L25.47 21.2601Z" fill="#F5F5F5"></path> <path d="M24.66 20.0602L22.56 21.4802L22.51 21.5102L22.38 21.6002L20.4 22.9302L19.4 23.6102L19.18 23.7602L18.4 24.2802L18.24 24.3902L1.04 36.0002H0V33.6602L14.67 23.7602L14.91 23.6002L16.39 22.6002L17.87 21.6002L20.26 19.9902L20.4 19.8902L21.07 19.4402L21.55 19.1202L22.89 18.2102L23.25 17.9702L23.8 18.7902L24.66 20.0602Z" fill="#EF4444"></path> <path d="M23.25 17.97L22.89 18.21L21.55 19.12L21.07 19.44L20.4 19.89L20.26 19.99L17.87 21.6L16.39 22.6L14.91 23.6L14.67 23.76L0 33.66V29.75L8.88 23.76L9.12 23.6L10.6 22.6L12.08 21.6L15.29 19.44L17.37 18.04L18.66 17.17L19.56 16.56L20.4 15.99L20.91 15.65L21.44 15.29L22.3 16.56L22.33 16.61L23.15 17.82L23.25 17.97Z" fill="#F5F5F5"></path> <path d="M48 2.14014V6.06014L38.84 12.2401L38.6 12.4001L37.12 13.4001L35.63 14.4001L32.43 16.5601L30.24 18.0401L28.96 18.9001L28.16 19.4401L27.6 19.8201L26.7 20.4301L26.37 20.6501L25.82 19.8301L25.56 19.4401L24.56 17.9601L26.06 16.9501L26.64 16.5601L27.34 16.0801L27.6 15.9101L29.84 14.4001L31.32 13.4001L32.8 12.4001L33.04 12.2401L48 2.14014Z" fill="#F5F5F5"></path> <path d="M48 0V2.14L33.04 12.24L32.8 12.4L31.32 13.4L29.84 14.4L27.6 15.91L27.34 16.08L26.64 16.56L26.06 16.95L24.56 17.96L24.46 17.81L23.81 16.85L23.15 15.87L25.09 14.56L25.44 14.33L27.6 12.87L28.53 12.24L28.6 12.19L29.6 11.52L29.76 11.41L46.67 0H48Z" fill="#EF4444"></path> <path d="M46.67 0L29.76 11.41L28.53 12.24L27.6 12.87L25.44 14.33L25.09 14.56L23.15 15.87L22.56 15L22.34 14.68L22.56 14.53L23.8 13.69L25.44 12.59L27.6 11.13L29.76 9.67L44.1 0H46.67Z" fill="#F5F5F5"></path> <path d="M48 34.7898V35.9898L47.99 35.9998H44L29.76 26.3998L29.6 26.2898L28.6 25.6198L27.6 24.9398L25.44 23.4898L23.8 22.3798L22.56 21.5398L22.51 21.5098L22.14 21.2598L22.56 20.6398L23.8 18.7898L23.95 18.5698L25.44 19.5698L25.82 19.8298L26.7 20.4298L27.6 21.0298L28.44 21.5998L29.76 22.4898L29.92 22.5998L31.41 23.5998L31.65 23.7598L48 34.7898Z" fill="#F5F5F5"></path> <path d="M48 31.75V34.79L31.65 23.76L31.41 23.6L29.92 22.6L29.76 22.49L28.44 21.6L27.6 21.03L26.7 20.43L25.82 19.83L25.44 19.57L23.95 18.57L24.46 17.81L25.36 16.48L25.44 16.53L25.48 16.56L26.06 16.95L28.96 18.9L29.75 19.44L32.95 21.6L34.44 22.6L35.92 23.6L36.16 23.76L48 31.75Z" fill="#EF4444"></path> <path d="M48 30.02V31.75L36.16 23.76L35.92 23.6L34.44 22.6L32.95 21.6L29.75 19.44L28.96 18.9L26.06 16.95L25.48 16.56L25.44 16.53L25.36 16.48L25.44 16.36L26.17 15.29L27.34 16.08L27.6 16.25L28.05 16.56L30.24 18.04L32.32 19.44L35.53 21.6L37.01 22.6L38.49 23.6L38.73 23.76L48 30.02Z" fill="#F5F5F5"></path> <path d="M22.05 19.4498L21.24 20.6498L20.4 20.0798L20.26 19.9898L19.45 19.4398L17.37 18.0398L15.18 16.5598L11.98 14.3998L10.49 13.3998L9.01 12.3998L8.77 12.2398L0 6.31984V4.58984L11.35 12.2398L11.59 12.3998L13.07 13.3998L14.56 14.3998L17.76 16.5598L18.66 17.1698L21.55 19.1198L22.04 19.4398L22.05 19.4498Z" fill="#F5F5F5"></path> <path d="M23.46 17.3698L23.15 17.8198L22.89 18.2098L22.06 19.4398L22.05 19.4498L22.04 19.4398L21.55 19.1198L18.66 17.1698L17.76 16.5598L14.56 14.3998L13.07 13.3998L11.59 12.3998L11.35 12.2398L0 4.5898V1.5498L15.85 12.2398L16.09 12.3998L17.57 13.3998L18.24 13.8498L19.06 14.3998L20.4 15.3098L20.91 15.6498L22.26 16.5598L22.33 16.6098L23.46 17.3698Z" fill="#EF4444"></path> <path d="M25.27 14.68L23.81 16.85L23.46 17.37L22.33 16.61L22.26 16.56L20.91 15.65L20.4 15.31L19.06 14.4L18.24 13.85L17.57 13.4L16.09 12.4L15.85 12.24L0 1.55V0H3.5L18.24 9.94L18.4 10.05L19.4 10.72L20.4 11.4L22.56 12.85L23.8 13.69L25.09 14.56L25.27 14.68Z" fill="#F5F5F5"></path> <path fill-rule="evenodd" clip-rule="evenodd" d="M48 13.4V22.6H28.6V36H19.4V22.6H0V13.4H19.4V0H28.6V13.4H48Z" fill="#EF4444"></path> <path d="M0 21.6V23.6H18.4V36H20.4V21.6H0ZM18.4 0V12.4H0V14.4H20.4V0H18.4ZM29.6 12.4V0H27.6V14.4H48V12.4H29.6ZM27.6 21.6V36H29.6V23.6H48V21.6H27.6Z" fill="#F5F5F5"></path></g><defs><clipPath id="flag-gb"><rect width="48" height="36" rx="8px" fill="white" /></clipPath></defs></svg>